<svg width="200" height="249" viewBox="0 0 200 249" fill="none" xmlns="http://www.w3.org/2000/svg">
<path d="M161.379 29.9075H40.5681C37.101 29.911 33.7778 31.2902 31.3272 33.7411C28.8763 36.1921 27.4971 39.5149 27.4936 42.982V131.037C27.4971 134.503 28.8763 137.826 31.3272 140.275C33.7782 142.726 37.1009 144.103 40.5681 144.105H161.379C164.844 144.103 168.167 142.726 170.618 140.275C173.069 137.826 174.448 134.503 174.451 131.037V43.0043C174.455 39.5337 173.079 36.2038 170.626 33.7478C168.175 31.2917 164.849 29.909 161.378 29.9055L161.379 29.9075ZM164.724 131.037V131.038C164.722 132.883 163.225 134.379 161.379 134.379H40.5681C38.7217 134.379 37.2243 132.883 37.2209 131.038V43.0051C37.2209 41.1569 38.7199 39.6578 40.5681 39.6578H161.379C163.225 39.6613 164.722 41.1569 164.724 43.0051V131.037Z" fill="#252734"/>
<path d="M126.151 178.934C123.596 178.932 121.145 179.947 119.337 181.753C117.529 183.56 116.512 186.01 116.512 188.566C116.511 191.121 117.525 193.572 119.332 195.38C121.14 197.188 123.589 198.202 126.146 198.204C128.701 198.204 131.152 197.19 132.958 195.382C134.767 193.575 135.781 191.124 135.781 188.569C135.779 186.016 134.763 183.566 132.958 181.76C131.154 179.954 128.706 178.937 126.151 178.934L126.151 178.934Z" fill="#252734"/>
<path d="M152.187 159.893C149.632 159.893 147.183 160.907 145.378 162.714C143.572 164.52 142.557 166.969 142.557 169.523C142.557 172.076 143.572 174.525 145.378 176.331C147.183 178.138 149.632 179.152 152.187 179.152C154.741 179.152 157.19 178.138 158.996 176.331C160.802 174.525 161.817 172.076 161.817 169.523C161.814 166.969 160.799 164.522 158.993 162.715C157.188 160.91 154.74 159.894 152.187 159.892L152.187 159.893Z" fill="#252734"/>
<path d="M180.531 0.000889348H19.4547C14.2973 0.00957439 9.35384 2.06274 5.70791 5.7088C2.06189 9.35481 0.00889359 14.2982 0 19.4556V228.593C0.00868504 233.75 2.06185 238.694 5.70791 242.34C9.35393 245.986 14.2973 248.039 19.4547 248.048H142.671C157.87 248.03 172.442 241.985 183.189 231.238C193.938 220.491 199.983 205.919 200 190.719V19.4547C199.99 14.2956 197.936 9.35028 194.285 5.70257C190.635 2.05655 185.688 0.00533616 180.529 0L180.531 0.000889348ZM190.258 190.72C190.243 203.337 185.223 215.432 176.303 224.356C167.383 233.278 155.288 238.3 142.672 238.321H19.4561C16.8766 238.321 14.4014 237.296 12.5773 235.472C10.7534 233.649 9.72861 231.173 9.72861 228.594V19.4564C9.72861 16.8769 10.7535 14.4017 12.5773 12.5777C14.4012 10.7538 16.8765 9.72897 19.4561 9.72897H180.532C183.112 9.72897 185.587 10.7538 187.411 12.5777C189.235 14.4016 190.26 16.8768 190.26 19.4564L190.258 190.72Z" fill="#252734"/>
<path d="M82.1323 174.554H72.3356V164.759C72.3356 163.468 71.8232 162.231 70.9112 161.319C69.9993 160.408 68.7625 159.895 67.4719 159.895H58.717C56.0316 159.895 53.8531 162.073 53.8531 164.759V174.554H44.0631C41.3776 174.554 39.1992 176.732 39.1992 179.418V188.173C39.1992 189.463 39.7116 190.7 40.6235 191.612C41.5355 192.524 42.7722 193.036 44.0628 193.036H53.8387V202.831C53.8387 204.122 54.3511 205.359 55.263 206.271C56.175 207.183 57.4117 207.695 58.7024 207.695H67.4572C68.7478 207.695 69.9846 207.183 70.8965 206.271C71.8085 205.359 72.3209 204.122 72.3209 202.831V193.052H82.1159C83.4065 193.052 84.6432 192.54 85.5552 191.626C86.4671 190.714 86.9795 189.477 86.9795 188.188V179.433C86.983 178.143 86.4758 176.904 85.5656 175.989C84.6571 175.075 83.4204 174.558 82.1315 174.554L82.1323 174.554Z" fill="#252734"/>
<path d="M100.871 83.7991C93.7963 83.8147 87.0149 86.6322 82.0123 91.6366C77.0096 96.6392 74.1939 103.421 74.1801 110.495C74.1801 111.786 74.6925 113.023 75.6045 113.935C76.5164 114.847 77.7532 115.359 79.0438 115.359H122.706H122.704C123.995 115.359 125.232 114.847 126.144 113.935C127.056 113.023 127.568 111.786 127.568 110.495C127.554 103.421 124.737 96.6374 119.734 91.6348C114.73 86.6303 107.948 83.8129 100.872 83.7991H100.871Z" fill="#252734"/>
<path d="M79.5665 77.4179C80.1831 76.2732 80.3169 74.9305 79.9365 73.6868C79.5561 72.4448 78.6962 71.4061 77.5446 70.8016C76.3947 70.1988 75.0502 70.0807 73.8117 70.475C72.5732 70.8676 71.5431 71.7413 70.9526 72.8982C67.7078 79.0854 61.649 79.0072 59.8529 78.832H59.8547C59.5038 78.7573 59.1477 78.7173 58.7881 78.7156C56.2399 78.6322 54.0581 80.5325 53.7926 83.0703C53.5268 85.6064 55.2656 87.9182 57.7773 88.3647C57.9493 88.4029 58.123 88.429 58.2985 88.4429C59.1148 88.5523 59.9382 88.6061 60.7633 88.6044C66.4348 88.6079 74.8872 86.3272 79.5666 77.418L79.5665 77.4179Z" fill="#252734"/>
<path d="M142.551 78.7163C142.193 78.7181 141.835 78.758 141.486 78.8327C139.692 79.0081 133.637 79.0863 130.387 72.8989C129.796 71.742 128.768 70.8683 127.529 70.4758C126.291 70.0814 124.946 70.1996 123.794 70.8023C122.645 71.4068 121.783 72.4455 121.403 73.6875C121.024 74.9313 121.156 76.274 121.773 77.4187C126.452 86.3296 134.904 88.605 140.56 88.605H140.562C141.387 88.6068 142.21 88.5529 143.027 88.4435C143.202 88.4296 143.376 88.4035 143.548 88.3653C146.06 87.9189 147.799 85.6069 147.533 83.071C147.267 80.5332 145.085 78.6328 142.537 78.7162L142.551 78.7163Z" fill="#252734"/>
</svg>
